<?xml version="1.0" encoding="UTF-8" standalone="no"?>
<!DOCTYPE svg PUBLIC "-//W3C//DTD SVG 1.1//EN" "http://www.w3.org/Graphics/SVG/1.1/DTD/svg11.dtd">
<svg version="1.1" xmlns="http://www.w3.org/2000/svg" xmlns:xlink="http://www.w3.org/1999/xlink" preserveAspectRatio="xMidYMid meet" viewBox="3.7930520414821736 7.552576448005716 244.76050929116445 59.03263321684337" width="240.76" height="55.03"><defs><path d="M55.8 36.05C55.8 43.71 53.26 51.32 48.18 58.88C160.77 58.88 223.32 58.88 235.82 58.88C235.82 58.88 235.82 58.88 235.82 58.88C248.8 45.98 248.8 25.15 235.82 12.25C235.82 12.25 235.82 12.25 235.82 12.25C229.61 12.25 167.06 12.49 48.18 12.97C53.26 20.71 55.8 28.4 55.8 36.05Z" id="b87que0qI"></path><path d="M10.31 18.41C6.04 24.41 4.15 31.92 4.99 39.56C5.56 44.81 7.42 49.69 10.44 53.87C10.91 54.52 12.23 56.07 12.84 56.7C19.19 63.16 27.88 65.25 35.91 62.23C38.43 61.28 40.98 59.72 43.02 57.87C44.59 56.46 46.11 54.7 47.28 52.96C50.84 47.64 52.61 41.01 52.24 34.34C51.92 28.45 50.04 22.99 46.77 18.41C46.16 17.57 44.75 15.92 44.03 15.19C40.28 11.47 35.9 9.28 30.96 8.67C30.12 8.56 27.74 8.51 26.89 8.59C21.87 9.01 17.23 11.18 13.32 14.92C12.6 15.61 10.89 17.58 10.31 18.41ZM50.14 33.27C50.24 34.27 50.29 36.76 50.21 37.85C49.88 42.93 48.29 47.66 45.61 51.61C42.3 56.48 37.47 59.82 32.3 60.86C30.84 61.14 30.32 61.2 28.53 61.2C26.76 61.2 26.23 61.14 24.78 60.86C19.6 59.82 14.78 56.48 11.46 51.61C9.15 48.2 7.59 44.02 7.04 39.77C6.88 38.39 6.85 37.91 6.85 36.06C6.85 33.93 6.93 32.9 7.22 31.19C8.27 25.08 11.22 19.65 15.57 15.85C18.66 13.16 22.54 11.42 26.38 11C26.68 10.97 27 10.93 27.11 10.92C27.62 10.86 30.34 10.93 30.96 11.02C35.9 11.71 40.25 14.12 43.75 18.09C47.33 22.17 49.52 27.36 50.14 33.27Z" id="e4unfSbZW3"></path><path d="M29.17 38.89C29.22 38.86 32.45 35.84 36.36 32.21C41.31 27.58 43.45 25.56 43.41 25.53C43.33 25.47 14.87 25.47 14.78 25.53C14.74 25.57 16.87 27.58 21.9 32.27C28.06 38 29.09 38.95 29.17 38.89Z" id="ea0Bur2wL"></path><path d="M18.78 41.77C21.58 38.64 23.87 36.05 23.87 36.02C23.88 35.96 13.84 26.59 13.73 26.56C13.7 26.55 13.65 26.63 13.64 26.73C13.6 26.96 13.62 47.15 13.65 47.33C13.68 47.44 14.2 46.88 18.78 41.77Z" id="a2S980jwHj"></path><path d="M29.07 38.89C29.12 38.86 32.35 35.84 36.26 32.21C41.21 27.58 43.35 25.56 43.32 25.53C43.23 25.47 14.77 25.47 14.68 25.53C14.64 25.57 16.77 27.58 21.8 32.27C27.97 38 28.99 38.95 29.07 38.89Z" id="a4UgvVgANQ"></path><path d="M29.09 48.54C38.61 48.54 43.48 48.53 43.51 48.49C43.54 48.45 41.81 46.48 38.41 42.69C38.08 42.31 36.36 40.4 33.28 36.95C33.15 37.07 32.5 37.67 31.33 38.75L29.39 40.56L29.09 40.56C28.92 40.56 28.83 40.56 28.81 40.56C27.69 39.52 27.06 38.95 26.94 38.83C25.91 37.88 25.04 37.06 24.99 37.02C24.93 36.96 24.26 37.68 19.78 42.69C16.4 46.45 14.66 48.45 14.68 48.49C14.72 48.53 19.58 48.54 29.09 48.54Z" id="a34mZ6JOY"></path><path d="M44.48 47.39C44.5 47.39 44.53 47.28 44.55 47.14C44.59 46.78 44.59 27.08 44.54 26.8C44.53 26.69 44.49 26.59 44.47 26.57C44.43 26.56 42.14 28.68 39.37 31.26C36.61 33.85 34.33 35.99 34.33 36.03C34.33 36.1 44.42 47.39 44.48 47.39Z" id="a2VhS9GqsP"></path><path d="M44.48 47.39C44.5 47.39 44.53 47.28 44.55 47.14C44.59 46.78 44.59 27.08 44.54 26.8C44.53 26.69 44.49 26.59 44.47 26.57C44.43 26.56 42.14 28.68 39.37 31.26C36.61 33.85 34.33 35.99 34.33 36.03C34.33 36.1 44.42 47.39 44.48 47.39Z" id="e4XyXqpbmZ"></path><path d="M29.09 48.54C38.61 48.54 43.48 48.53 43.51 48.49C43.54 48.45 41.81 46.48 38.41 42.69C38.08 42.31 36.36 40.4 33.28 36.95C33.15 37.07 32.5 37.67 31.33 38.75L29.39 40.56L29.09 40.56C28.92 40.56 28.83 40.56 28.81 40.56C27.69 39.52 27.06 38.95 26.94 38.83C25.91 37.88 25.04 37.06 24.99 37.02C24.93 36.96 24.26 37.68 19.78 42.69C16.4 46.45 14.66 48.45 14.68 48.49C14.72 48.53 19.58 48.54 29.09 48.54Z" id="i1RRrNM743"></path><path d="M186.6 42.18L192.18 27.29L196.53 27.29L196.53 46.72L193.18 46.72L193.18 40.31L193.51 31.74L187.79 46.72L185.38 46.72L179.67 31.76L180 40.31L180 46.72L176.65 46.72L176.65 27.29L181.02 27.29L186.6 42.18ZM86.76 45.25C85.27 46.46 83.37 47.09 81.45 46.99C80.02 47.02 78.6 46.63 77.37 45.89C76.18 45.13 75.24 44.05 74.65 42.76C74.01 41.41 73.68 39.83 73.66 38.04C73.66 36.95 73.66 36.35 73.66 36.23C73.62 34.56 73.96 32.91 74.63 31.39C75.21 30.05 76.18 28.93 77.42 28.16C78.68 27.38 80.13 26.99 81.61 27.02C84.81 27.02 86.26 28.59 86.78 28.77C88.08 29.94 88.83 31.58 89.05 33.71C87.03 33.71 85.92 33.71 85.7 33.71C85.45 31.61 84.6 30.98 84.47 30.68C83.68 30.02 82.65 29.68 81.61 29.76C80.28 29.69 79.02 30.29 78.23 31.37C77.46 32.43 77.05 34.01 77.03 36.08C77.03 37.12 77.03 37.69 77.03 37.8C77.03 40.95 78.05 42.13 78.16 42.61C79.28 44.27 81.12 44.1 81.45 44.27C83.44 44.27 84.13 43.46 84.43 43.37C85.1 42.77 85.52 41.78 85.7 40.39C87.71 40.39 88.83 40.39 89.05 40.39C88.96 42.25 88.14 43.99 86.76 45.25ZM110.35 33.95C111.37 32.67 112.92 31.96 114.55 32.01C116.95 31.85 119.03 33.68 119.18 36.09C119.21 36.45 119.19 36.82 119.13 37.17C119.13 37.81 119.13 41 119.13 46.72C118.8 46.72 116.22 46.72 115.89 46.72C115.89 41.1 115.89 37.99 115.89 37.37C115.95 36.64 115.74 35.91 115.3 35.32C114.7 34.67 113.55 34.74 113.36 34.67C112.06 34.67 111.09 35.26 110.45 36.44C110.45 37.13 110.45 40.56 110.45 46.72L107.21 46.72L107.21 32.28L110.26 32.28C110.32 33.32 110.35 33.87 110.35 33.95ZM157.21 44.45C156.42 45.63 155.29 46.12 155.08 46.3C154.18 46.76 153.19 47 152.17 46.99C150.37 47.07 148.62 46.36 147.39 45.02C146.14 43.51 145.51 41.57 145.62 39.61C145.62 39.57 145.62 39.31 145.62 39.27C145.52 37.35 146.15 35.47 147.38 33.99C149.13 32.01 151.69 32.21 152.17 32.01C153.7 31.95 155.21 32.49 156.35 33.51C157.43 34.53 158.05 35.96 158.04 37.46C157.74 37.46 155.3 37.46 155 37.46C154.95 36.21 154.24 35.62 154.15 35.41C153.37 34.61 152.34 34.69 152.13 34.61C151.19 34.57 150.29 34.99 149.72 35.76C149.07 36.79 148.77 38 148.85 39.22C148.85 39.27 148.85 39.69 148.85 39.74C148.76 40.97 149.05 42.19 149.69 43.25C150.26 44.02 151.19 44.45 152.13 44.4C152.87 44.42 153.59 44.17 154.14 43.69C154.66 43.25 154.97 42.61 155 41.94C155.61 41.94 157.74 41.94 158.04 41.94C157.99 43.29 157.29 44.21 157.21 44.45ZM139.71 45.37C138.16 46.99 136.31 46.83 135.93 46.99C133.76 46.99 132.74 45.87 132.39 45.74C131.02 44.51 131.16 42.98 131.02 42.68C131.02 40.36 132.55 39.48 132.73 39.13C134.19 38.22 135.9 37.79 137.62 37.89C137.75 37.89 138.41 37.89 139.61 37.89C139.61 37.33 139.61 37.01 139.61 36.95C139.64 36.29 139.41 35.65 138.97 35.15C138.47 34.67 137.77 34.43 137.08 34.48C136.43 34.45 135.79 34.65 135.26 35.04C134.79 35.4 134.56 35.87 134.56 36.44C132.62 36.44 131.54 36.44 131.32 36.44C131.33 35.63 131.61 34.85 132.11 34.22C132.9 33.19 134.03 32.76 134.25 32.6C135.59 32.01 136.96 32.07 137.26 32.01C139.79 32.01 140.89 33.15 141.29 33.29C142.3 34.13 142.81 35.33 142.84 36.87C142.84 40.77 142.84 42.95 142.84 43.39C142.79 44.45 142.98 45.5 143.38 46.49C143.38 46.51 143.38 46.58 143.38 46.72C141.4 46.72 140.3 46.72 140.08 46.72C139.9 46.29 139.77 45.83 139.71 45.37ZM200.47 35.61C201.31 33.91 202.58 33.23 202.81 32.96C204.32 32.01 205.83 32.11 206.16 32.01C209.11 32.01 210.26 33.71 210.71 33.89C211.78 35.15 212.31 36.92 212.31 39.22C212.31 39.35 212.31 40.39 212.31 40.52C206.67 40.52 203.53 40.52 202.91 40.52C202.95 41.58 203.37 42.59 204.1 43.35C204.79 44.05 205.74 44.43 206.72 44.4C208.15 44.43 209.5 43.75 210.35 42.6C210.52 42.77 211.91 44.1 212.09 44.27C211.51 45.13 210.71 45.82 209.78 46.27C208.76 46.76 207.65 47.01 206.54 46.99C204.68 47.06 202.87 46.36 201.55 45.04C200.28 43.75 199.65 42.03 199.65 39.88C199.65 39.64 199.65 39.5 199.65 39.48C199.65 37.31 200.39 36 200.47 35.61ZM126.47 32.28L129.01 32.28L129.01 34.68C127.49 34.68 126.64 34.68 126.47 34.68C126.47 39.52 126.47 42.21 126.47 42.74C126.47 43.57 126.76 43.81 126.79 43.94C127.12 44.21 127.54 44.35 127.96 44.3C128.34 44.3 128.72 44.26 129.09 44.17C129.09 44.42 129.09 46.43 129.09 46.68C127.98 46.99 127.17 46.95 126.96 46.99C125.05 47.16 123.36 45.75 123.19 43.83C123.15 43.51 123.17 43.18 123.24 42.86C123.24 42.32 123.24 39.59 123.24 34.68C123.08 34.68 122.29 34.68 120.87 34.68L120.87 32.28L123.24 32.28L123.24 28.77L126.47 28.77L126.47 32.28ZM164.54 32.28L167.08 32.28L167.08 34.68C165.56 34.68 164.71 34.68 164.54 34.68C164.54 39.52 164.54 42.21 164.54 42.74C164.54 43.57 164.83 43.81 164.87 43.94C165.19 44.21 165.61 44.35 166.03 44.3C166.41 44.3 166.79 44.26 167.16 44.17C167.16 44.42 167.16 46.43 167.16 46.68C166.06 46.99 165.25 46.95 165.04 46.99C163.12 47.16 161.43 45.75 161.26 43.83C161.23 43.51 161.24 43.18 161.31 42.86C161.31 42.32 161.31 39.59 161.31 34.68C161.15 34.68 160.36 34.68 158.94 34.68L158.94 32.28L161.31 32.28L161.31 28.77L164.54 28.77L164.54 32.28ZM91.98 35.55C92.49 34.46 93.31 33.55 94.33 32.92C95.39 32.3 96.6 31.99 97.82 32.01C100.73 32.01 102.08 33.71 102.55 33.89C103.76 35.15 104.42 36.81 104.52 38.89C104.52 39.34 104.52 39.59 104.52 39.64C104.55 40.96 104.27 42.27 103.7 43.46C103.2 44.54 102.38 45.45 101.36 46.06C100.3 46.7 99.08 47.02 97.85 46.99C94.8 46.99 93.45 45.16 92.97 44.95C91.69 43.44 91.04 41.5 91.14 39.53C91.14 39.53 91.14 39.38 91.14 39.37C91.12 38.04 91.4 36.74 91.98 35.55ZM97.85 44.4C99.48 44.4 100.14 43.25 100.39 43.11C101.31 41.83 101.22 39.74 101.31 39.37C101.37 38.13 101.04 36.92 100.37 35.89C99.43 34.61 98.07 34.75 97.82 34.61C96.82 34.59 95.88 35.06 95.3 35.87C94.6 37 94.28 38.32 94.37 39.64C94.37 41.88 95.2 42.78 95.29 43.14C95.88 43.97 96.83 44.44 97.85 44.4ZM209.12 37.91C209.12 37.01 208.81 36.15 208.25 35.45C207.49 34.61 206.37 34.7 206.16 34.61C205.33 34.59 204.54 34.93 204 35.55C203.41 36.29 203.04 37.2 202.95 38.15C203.78 38.15 205.83 38.15 209.12 38.15C209.12 38.01 209.12 37.93 209.12 37.91ZM137.86 39.94C136.91 39.88 135.97 40.1 135.16 40.57C134.56 40.96 134.22 41.64 134.26 42.34C134.23 42.91 134.45 43.45 134.87 43.83C135.33 44.21 135.93 44.42 136.53 44.38C137.49 44.38 138.15 43.97 138.33 43.91C138.87 43.63 139.31 43.19 139.61 42.66C139.61 42.3 139.61 41.39 139.61 39.94C138.56 39.94 137.98 39.94 137.86 39.94Z" id="buANJhmkI"></path></defs><g><g><g><use xlink:href="#b87que0qI" opacity="1" fill-opacity="0" stroke="#1976d2" stroke-width="3" stroke-opacity="1"></use></g></g><g><use xlink:href="#e4unfSbZW3" opacity="1" fill="#1976d2" fill-opacity="1"></use><g><use xlink:href="#e4unfSbZW3" opacity="1" fill-opacity="0" stroke="#cb0303" stroke-width="1" stroke-opacity="0"></use></g></g><g><g><use xlink:href="#ea0Bur2wL" opacity="1" fill="#9e9e9e" fill-opacity="1"></use></g><g><use xlink:href="#a2S980jwHj" opacity="1" fill="#9e9e9e" fill-opacity="1"></use></g><g><use xlink:href="#a4UgvVgANQ" opacity="1" fill="#9e9e9e" fill-opacity="1"></use></g><g><use xlink:href="#a34mZ6JOY" opacity="1" fill="#9e9e9e" fill-opacity="1"></use></g><g><use xlink:href="#a2VhS9GqsP" opacity="1" fill="#9e9e9e" fill-opacity="1"></use></g><g><use xlink:href="#e4XyXqpbmZ" opacity="1" fill="#9e9e9e" fill-opacity="1"></use></g><g><use xlink:href="#i1RRrNM743" opacity="1" fill="#9e9e9e" fill-opacity="1"></use></g></g><g><use xlink:href="#buANJhmkI" opacity="1" fill="#9e9e9e" fill-opacity="1"></use><g><use xlink:href="#buANJhmkI" opacity="1" fill-opacity="0" stroke="#000000" stroke-width="1" stroke-opacity="0"></use></g></g></g></svg>