<svg version="1" xmlns="http://www.w3.org/2000/svg" width="782.667" height="782.667" viewBox="0 0 587.000000 587.000000"><path d="M190.7 21.8c-1.5.3-1.8 1.1-1.5 3.3.3 1.6.2 2.7 0 2.4-.9-.9-3.1 3.1-2.7 5.1.2 1 .4 2.3.4 2.7.1.5.6.5 1.2.2.7-.5.7-.2 0 1.1-1 1.9-2.6 9.2-2.3 10.6.1.5-.3.8-.8.8s-1 .7-1 1.5-.6 1.5-1.3 1.5c-1.3 0-5.5 7.2-6.1 10.5-.2 1.1-1 3.6-1.9 5.5-.8 1.9-1.4 4.9-1.2 6.7.2 1.8-.1 3.3-.5 3.3-.5 0-.7.9-.5 2.1.4 1.7.2 1.9-1 .9-.8-.7-1.5-.9-1.6-.4 0 .5-.2 2-.4 3.4s-.6 4.2-.9 6.4c-.3 2.1-.9 4.3-1.4 5-.5.6-.8 2.1-.7 3.4.1 1.3-.2 2.5-.6 2.8-.5.2-.5 1.2-.2 2.1.5 1.1.3 1.4-.6.8-.9-.5-1.2-.2-.9 1.1.2 1-.4 2.6-1.3 3.5-.9.9-1.5 2.8-1.4 4.3.2 1.4 0 2.4-.5 2.1-.4-.3-1.1.2-1.4 1.1-.9 2.2-.8 2.6.6 1.8.7-.5.8-.3.3.5-.4.7-1.6 1-2.7.8-1.1-.3-1.7-.3-1.4 0 .3.4 0 1.3-.7 2.1-.9 1.3-.9 1.4.1.8.6-.4 1.2-.2 1.2.3 0 .6-.4 1.1-.8 1.1-.5 0-.9.7-.9 1.5s.4 1.5.9 1.5.8.8.6 1.7c-.2 1 .2 1.7.8 1.6 1.6-.3 1.2 7.1-.5 7.8-1.4.5-1.8 1.8-2.3 7.2-.1 1.6-.6 3.1-.9 3.3-.4.2-.6 1.7-.4 3.2.2 1.5.2 2.1-.1 1.4-.3-.7-1.5-1.7-2.7-2.4-1.9-1-2-.9-1 .4 1 1.1 1 1.7.1 2.6-.8.8-.8 1.2-.1 1.2.6 0 1.3.8 1.6 1.9.3 1.4 0 1.7-1.4 1.4-1.1-.3-1.6-1-1.2-1.7.3-.6.2-.7-.3-.3-.5.5-.9 1.2-.9 1.5 0 .4-.4 1.3-.9 2.1-.7 1-.5 1.2.5.6.8-.5 1.1-.5.7 0-.4.4-.3 1.4.3 2.1.7.8.7 1.4-.1 1.9-.5.3-1.3 0-1.6-.9-.9-2.3-4.4-1.6-3.9.9.2 1.1.4 2.3.4 2.7.1.3.9.9 1.9 1.1 1.5.4 1.5.5-.2.6-1.4.1-1.7.7-1.4 2.5.4 1.7.1 2.3-.9 1.9-.7-.3-1-1-.6-1.6.3-.6.1-.7-.5-.3-.9.5-.8 1.4.4 3.1 1 1.5 1.2 2.5.5 3-.6.3-1.1-.1-1.1-.9 0-2-1.7-2.9-2.6-1.5-.4.7-.3.9.3.6.6-.4 1.4.4 1.7 1.8.4 1.6 1.1 2.3 1.9 2 .7-.4.5 0-.5.7-1.2 1.1-1.4 1.8-.6 3.2.8 1.4.7 2.1-.3 2.7-2.2 1.4-3.3 1-1.9-.6.7-.9 1-1.8.6-2.2-.3-.3-.6-.1-.6.6s-.5.9-1.2.5-.8-.3-.4.5c.4.6.1 1.4-.8 1.7-.8.3-1.7 1.3-2 2.1-.5 1.2-.3 1.3.7.5.8-.7 1.8-.7 2.7-.2 1.4.9 1.3 1.1-.9 1.4-.5 0-1.3.5-1.8 1s-.3.6.5.2c.6-.4 1.2-.3 1.2.2s-1 1.4-2.2 2c-1.3.6-1.7 1.1-1 1.1.6.1 1.2 1 1.2 2.1s.3 1.9.8 1.9c1.9-.3 2.3.2 1.2 1.6-.9 1.1-1.6 1.2-3 .2-1.3-.8-1.6-1.5-.9-2.3.7-.8.6-1.5-.2-2-.7-.4-.9-.3-.5.4.3.6.2 1.4-.4 1.7-.8.5-.7 1.1.1 2.1.6.8.9 1.8.5 2.1-.4.4-1.1.1-1.7-.7-.7-1.1-.8-.8-.5 1.3.3 1.5.1 2.5-.5 2.2-.5-.4-.9.1-.9.9s.9 1.8 2 2.1c2.4.8 2.6 2.1.4 2.9-2.3.9-2.6.8-1.9-.7.4-.6 0-.4-.9.6-.8 1.1-1.3 2.7-1.1 3.7.2 1.2-.1 1.7-1 1.4-.7-.3-1.6-.1-2 .5-.3.6-.1 1.1.5 1.1.7 0 1 .6.7 1.4-.4 1 0 1.2 1.4.9 1-.3 1.9 0 1.9.6 0 1.5-5.3 1.4-7-.2-1.2-1-1.2-.9-.2.5 1 1.3 1 1.7 0 2.1-.8.3-.6.6.5.6 2.5.1 1.1 2.1-1.5 2.1-1.2 0-1.8.3-1.5.7.4.3.1 1.3-.6 2.1-1 1.3-.9 1.4.2.8 1-.7 1.2-.3.6 1.5-.4 1.7-.3 2 .3 1 .8-1.1 1.3-.7 2.6 1.7 2 3.9 2 4.8.1 3.2-1.3-1-1.5-.9-1.5.9 0 1.5-.4 2-1.2 1.5-.9-.5-.8-.2.1.9 1 1.3 1.7 1.5 2.7.6 1-.8 1.4-.8 1.4-.1 0 .6.8.9 1.8.6.9-.3.6.1-.8.9-1.4.9-2.7 1.4-3.1 1.2-.3-.2-.6.2-.6.9 0 .9 1 1.3 2.4 1.1 1.3-.1 2.6.3 3 .9.3.6.3.8-.2.4-1.2-1.1-4.5 1.1-4.4 3 0 1.4.2 1.4.9-.3.5-1.1.9-1.4.9-.8.1.7.8 1.3 1.6 1.3s1.5.5 1.5 1.1c0 .5-.4.7-1 .4-.5-.3-1 .2-1.1 1.2 0 1-.3 1.3-.6.5-.2-.6-.8-1.2-1.2-1.2-1 0-.6 4.9.5 5.8.4.4.4-.1.1-1.1-.8-2.2.9-2.3 1.7-.1.7 1.8-2.3 4.6-3.8 3.7-.5-.4-.6-.1-.2.6.5.8 1.2.9 1.9.2.8-.6 1.6-.4 2.5.5.8.9.9 1.4.2 1.4s-.7.7.1 2.2l1.2 2.3-2.4-2-2.4-2 2.4 2.7c1.9 2.2 2.2 3 1.2 4.2-.9 1.1-.9 1.6 0 2.1.6.4 1.5.2 1.9-.5.5-.9.9-.9 1.4-.1.4.6.5 1.5.2 2-.4.5 0 1.2.6 1.4 1 .4.9.8-.2 1.6-.8.6-1 1.1-.5 1.1.6 0 1.7-.6 2.4-1.3 1-1 1.2-.9.9.3-.2.8.2 1.4.9 1.3.7-.2 1 .9.7 3-.2 1.7 0 2.7.4 2.2 1.2-1.7 2.8-1.4 2.8.6 0 1-.3 1.9-.6 1.9-.4 0-.5 1.4-.2 3 .5 3.6.8 3.7 3.3.7l2-2.2-1.8 3c-1.8 2.8-1.8 2.9.2 2.2 2-.7 2-.7.1.8-1.1.8-1.6 1.5-1 1.6.5 0 0 .4-1.1.9-1.8.7-1.8.9 1 2.1 1.7.7 3.4 1.1 3.8 1 .5-.1.6.3.2.8-.3.6-1.1.8-1.8.5-1.6-.6-5.7 3.2-5.7 5.2 0 .8-.4 1.3-.9.9-.5-.3-1.2.3-1.6 1.4-.3 1.1-1.3 2.2-2.1 2.5-.8.3-1.2 1-.9 1.6.3.5.1 1-.5 1-.7 0-1 .7-.6 1.5.3.8.1 1.5-.4 1.5-.6 0-.9.3-.9.7.1.5 0 1-.1 1.3-.2.6-.6 2.4-1.4 6.5-.8 3.8-1.8 17.9-2 27.2 0 4-.4 7.3-.7 7.3-.3 0-.5 1.2-.3 2.8.2 1.5.6 5.1.9 8.1.6 6.2 1.2 7.4 2.8 6.4.8-.4.8-.1-.1.9-1.1 1.3-.8 2.1 1.3 4.6 1.4 1.6 2.5 3.5 2.5 4.1 0 .6.5 1.1 1.1 1.1.5 0 .8.4.4.9-.3.5-.1 1.2.5 1.6.6.4.8 1.1.5 1.6-.4.5-.2.9.2.9.5 0 .9 1 1 2.2.1 1.1.6 2.4 1 2.7.4.3 1 1.5 1.1 2.6.2 1.1.7 2.4 1.2 3 .4.5 1 2.7 1.4 4.8.4 2.1 1 3.5 1.5 3.3.4-.3.5.9.3 2.6-.4 2.4-.2 2.9.9 2.3 1.2-.7 1.2-.6.1.7-.9 1.1-1 1.8-.2 2.3.6.3.8 1 .5 1.5-.9 1.5 1.4 6 2.8 5.4.7-.2 2.2.4 3.2 1.6 1 1.1 2.4 2 3.1 2 .7 0 1.6.5 2 1.2.5.7.2.9-.7.4-1-.5-.9-.3.1.6 1.3 1.1 1.6 4.2 1.6 17.3 0 13.4.2 15.9 1.4 15.7 1.1-.3 1 .2-.3 1.6-1.4 1.5-1.5 2.1-.5 2.5 1 .4 1 .6-.1.6-1 .1-1.1.4-.2 1.5.8 1 .9 1.6.1 2.1-.5.3-1 1.1-1 1.6 0 .6.6.7 1.3.3.9-.6.9-.5 0 .7-1.3 1.6-1.3 30.5 0 32.6.4.6.2 1.5-.4 1.9-.8.4-.7.9.2 1.5 1.1.7 1.1.9.1.9-.7 0-1 .4-.7 1 .3.5.7 3.6.7 6.7.1 3.2.6 6.1 1.2 6.5.8.6.8.8 0 .8-1.1 0-1.3 5.8-.2 7.5.4.6.3 1.7-.2 2.5-.4.7-.5 2.3-.1 3.4.4 1.2.6 3.2.4 4.6-.9 6.3-.8 12.6.2 13.9.8 1.1.7 1.3-.3.7-1.1-.6-1.3.2-.9 3.8.2 2.5.1 4.6-.2 4.6-.3 0-.6 4.4-.6 9.8v9.7l7.3.3c6.3.3 7.2.1 7.3-1.5 0-1 .2-3.3.3-5.1.1-1.8-.1-3.5-.6-3.8-.5-.4-.1-1.5.9-2.7 1.2-1.4 1.3-1.8.3-1.2-1.3.7-1.3.6-.2-.7.7-.9.9-1.9.5-2.1-.7-.4-.9-6.2-.3-6.2.7 0 .5-6.7-.2-7.1-.5-.3-.6-1-.2-1.5.3-.6.5-7.4.4-15.2-.5-39.2-.5-45.7.5-45.7.7 0 .7-.3 0-.8-1.1-.8-1.3-3.2-.3-4.8.4-.6.4-1.4.1-1.8-.9-.8-1.4-28.9-.6-33.4.8-5.1 2.6-2.5 6.7 9.9 1.9 5.8 4.5 12.8 5.9 15.5 4.1 8.3 9 16.9 9.9 17.2.4.2.8 1 .8 1.7 0 .8.6 2 1.3 2.7 1.4 1.5 5.1 7 5.1 7.8.1 1.5 9.3 11 10.5 11 .6 0 1.1.4 1.1 1 0 .5.9 1 2 1s2 .4 2 .8c0 .5 1.2 1.5 2.8 2.3 1.5.8 3.4 2.2 4.3 3.1.9 1 2.1 1.8 2.8 1.8.6 0 1.1.4 1.1 1 0 .5.6 1 1.3 1 .7 0 1.8.9 2.5 2 .7 1.2 1.7 1.8 2.2 1.5.6-.3 1-.2 1 .3 0 1.5 6.5 8.2 7.9 8.2.7 0 .9.4.6 1-.3.6.4 1 1.7 1 1.3 0 1.8.3 1.2.8-.7.4 0 1.6 2 3.2 1.6 1.4 2.6 1.8 2.1 1-.5-.9.1-.7 1.5.5 1.3 1.1 2 1.4 1.6.7-1-1.6 4.4-.8 5.4.8.5.7 1.1.6 2-.5.7-.9 1.9-1.4 2.5-1.1.7.2 2.3-.6 3.6-1.8 1.5-1.4 3.4-2.1 4.7-1.9 1.4.2 2.1-.1 1.7-.7-.3-.5-.1-1 .4-1 .6 0 1.1-.7 1.1-1.5s.5-1.5 1-1.5c.6 0 1-.6 1-1.3 0-1.6 4.7-3.7 6.7-3 1.2.5 1.4.3.8-.7-.6-1-.4-1.2.8-.7 1.5.6 3.3-1.7 2.8-3.7-.1-.5.5-.6 1.4-.3.8.4 1.5.1 1.5-.6 0-.8.3-.8.9.2.6 1 1 1 1.6.1.6-.9 1-.9 1.6.1.7 1.1.9 1 .9-.4 0-1.1.4-1.5 1.2-1.1.6.4 1.7-.1 2.5-1.1.7-1.1 1.3-1.5 1.3-.9 0 .5 2.4-1.7 5.4-5 3.5-3.8 5.9-5.6 6.7-5.1.7.5 1 .4.7-.1-.2-.5.6-1.9 1.9-3.1 1.3-1.2 2.3-1.9 2.3-1.5.1.4.7-.4 1.5-1.8s1.4-2.1 1.5-1.6c0 .5 1.5-.7 3.4-2.7 1.8-2 3.6-3.3 4-3 .3.4.6-.1.6-1 0-1 .5-1.7 1.1-1.7.5 0 .8-.4.5-.9-.3-.5.2-.8 1.2-.7.9 0 1.6-.5 1.5-1.1-.2-.7.3-1.2 1-1 .6.1 1.1-.4.9-1.1-.1-.8.1-1.1.6-.8 1.2.7 5.2-4 4.4-5-.4-.5 0-.3 1 .4 1.4 1.1 1.6 4 1.6 23.5 0 12.2.3 24.4.6 27.2 1 8.2 1.9 23.6 1.9 30.2 0 3.4.4 6 .8 5.7.5-.3.6.2.3 1-.3.9-1.1 1.6-1.7 1.6-.6 0-.2.7.9 1.6 1 .8 1.3 1.3.7.9-.9-.4-1.3.1-1.3 1.4 0 1.9.6 2.1 7.5 2.1 5.3 0 7.5-.4 7.5-1.3 0-.6-.5-4.4-1.1-8.2-.6-3.9-1.2-9-1.5-11.5-.2-2.5-.6-6.4-.8-8.8-.3-2.8-.1-4 .6-3.5.7.4.8.1.3-.7-.9-1.5-.9-3.9 0-29 .6-16.7.8-20.3 2-36.5.4-5 .7-9.7.8-10.5.1-2.1 2-3.7 3.6-3.2.9.3 1.1 0 .6-.8-.6-.9-.3-1 1-.3 2 1.2 5.5.6 5.5-.9 0-.5.5-.6 1-.3.6.3 1 .1 1-.5s.5-.8 1-.5c.6.3 1 .1 1-.6s.3-1 .6-.6c.4.3 1.2.1 2-.6 2.8-2.5 4.1-3.5 6.2-4.6 1.3-.7 1.9-1.7 1.6-2.3-.4-.7-.3-.8.5-.4.6.4 2.4-.2 4-1.3 1.6-1.2 3.4-2.1 3.9-2.1s1.2-.7 1.6-1.5c.3-.8 1.2-1.5 2-1.5.7 0 1.7-.7 2-1.6.3-.8 1.1-1.2 1.6-.9.6.4.9.3.8-.2-.4-1.2 3.4-5.3 4.9-5.3.7 0 1.7-.9 2.3-2.1.7-1.3 1.7-1.8 2.7-1.5 1.3.5 1.3.4.4-.8-.9-1.1-.8-1.5.4-2 1.1-.4 1.4-.2.9.6-.4.7-.3.8.4.4s1.2-1.4 1.2-2.2c0-.8.7-1.7 1.5-2 .8-.4 1.5-1.1 1.5-1.6 0-.6.8-1.7 1.8-2.4 1.4-1.1 1.4-1.5.4-2.2-1-.7-.8-1.1.8-1.5 1.5-.4 2.1-1.1 1.7-2.1-.3-.8-.2-1.6.3-1.8.5-.2 1-.9 1.2-1.7.2-.7 1.8-3 3.5-5 1.8-2 3.3-4 3.3-4.4 0-.5.4-.5 1-.2.6.4.7-.1.3-1.1-.4-1-.2-1.5.3-1.1.6.3 1.6-.4 2.4-1.6 1.1-1.9 1.1-2.1-.1-1.2-.8.5-.7.3.3-.6.9-.9 1.4-1.9 1.1-2.3-.4-.3 0-.6.8-.6 2.2 0 9.5-11.7 11.3-18 .9-3.1 1.4-7.6 1.2-10.3-.3-3 0-4.7.7-4.7.8 0 .8-.3-.1-1.2-.6-.6-.8-1.8-.3-2.7.5-.9.8-2.8.7-4.3-.1-1.5.4-3 1.2-3.3.9-.3 1-1 .3-2.3-.7-1.3-.7-2.2 0-2.9.6-.6.9-1.9.7-2.9-.2-1.1.3-2.4 1.2-3.1 1.1-.9 1.2-1.2.2-1.3-.7 0-1-.5-.7-1 .4-.6 1.1-.8 1.6-.5.5.3.6-.1.3-1-.4-.8 0-2.3.7-3.2 1-1.2 1-1.5.2-.9-.7.4-1.3.3-1.3-.3 0-.5.5-1.3 1-1.6.6-.4.8-1.1.5-1.6-.4-.5 0-.9.7-.9.9 0 .9-.3-.2-1-1.2-.7-1.2-1-.1-1 .7 0 1.1-.6.7-1.5-.3-.8-.1-1.5.4-1.5s.9-.8.9-1.7c0-1 .2-2.7.5-3.8.2-1.1.5-2.4.5-2.8.1-.5.7-.5 1.4-.1.9.5.9.4.1-.5-1.4-1.6-.6-5.3 1-4.4.7.3.6.1-.1-.7-1-1.1-.9-1.8.5-3.4 1-1.2 1.2-1.6.3-1.1-1.1.6-1.3.4-.8-.9.4-1 .7-2 .7-2.2 0-.3.6-.2 1.3.2.9.6.9.5 0-.7-1-1.2-1-1.8-.1-2.7.7-.7.9-1.2.5-1.2-.3 0 0-1.9.7-4.3s1.2-5.1 1-6c-.1-.9.1-1.7.4-1.7.4 0 .8-1 .8-2.3.2-2.1 1.1-6.2 1.4-6.2.3 0 1.2-4.2 1.5-7.5.2-1.9.4-3.5.5-3.5.1 0 .3-1 .4-2.3.2-1.2-.2-2.2-.7-2.2-.5 0-.4-.6.2-1.4.7-.9.8-1.7.2-2-.5-.3-.8-1.7-.6-3.1.1-1.4-.2-2.5-.8-2.5-.6 0-.7-.3-.4-.7.4-.3 0-1.7-.9-3.1-.9-1.4-1.1-2.1-.4-1.7.8.5 1.1.3.8-.6-.3-.8-1.1-1.3-1.8-1.1-1.1.2-1.1 0-.2-1.1 1-1.1.9-1.7-.3-2.7-.8-.7-1.5-1.7-1.5-2.2 0-1.2-3-4.2-3.1-3.1 0 .4-.4-.2-.9-1.5-.5-1.2-2-2.7-3.2-3.2-1.3-.5-1.9-.9-1.4-.9.5-.1-.1-1-1.4-2.1-1.2-1.1-2.7-1.7-3.1-1.4-.5.3-.9-.2-.9-1s-.9-1.8-2-2.1c-1.1-.3-2-1-2-1.5s-.9-1-2-1.2c-2.1-.3-2.1-.3.1-1.6 1.1-.8 1.8-.9 1.5-.3-.4.5.2 1.5 1.3 2.1 1.4.7 2.2.7 2.6 0 .4-.6.3-1-.2-.9-1.9.3-2.5-.2-1.4-1.4.8-1.1.6-1.8-.9-3.2-1.1-1-2-1.5-2-1 0 .4-1.3-.7-3-2.5-1.6-1.8-3-2.6-3-1.9 0 .7-.3 1-.6.6-.3-.3-.1-1.4.5-2.4.6-1.1 1.1-1.3 1.1-.5 0 .7.4 1.1 1 .7.5-.3.7-1.2.3-2-.3-.8-.1-1.5.4-1.5s.9 1.4.9 3.2c-.1 2.8.2 3.2 2.3 3.2 1.4 0 2.6-.6 2.9-1.4.3-1.3.2-1.3-.7 0-.7 1-1.1 1.1-1.1.2 0-.6-.3-1.1-.7-1-.5.2-.8-.2-.8-.7 0-.6.5-.9 1-.7.6.2-.3-1-1.8-2.6-2.1-2.2-2.5-3.2-1.6-3.7.7-.5 1-.4.6.2-.4.6 0 1.4.9 1.7 2.1.8 2.4.8 2.4-.5 0-.5-.5-.7-1.2-.3-.7.5-.9.1-.6-1.3.5-1.9.3-2-2.4-1.2-2.3.6-2.7.5-2-.4.6-.7 1-1.6 1-2 0-.5.4-1.2.8-1.5.4-.4.4-.1 0 .5-.4.7-.2 1.3.3 1.3 1.7 0 1.3-1.5-.9-3.5-2-1.8-2.1-1.8-1.4.1.5 1.5.4 1.7-.6.7-1.7-1.6-.4-3.3 2.6-3.3 1.4 0 2.3-.4 1.9-.9-.3-.6-1.4-.8-2.5-.6-1.2.2-1.8 0-1.5-.5.3-.4 0-1-.7-1.2-.7-.3-.5-.7.6-1.1 1.1-.5 1.5-.3 1 .5-.5.7-.3.8.6.3.9-.5 1.1-.4.6.3-1 1.7-.1 1.5 1.4-.4 1.1-1.2 1.1-1.5-.1-1.2-.8.2-1.3-.3-1.1-1 .1-.8-.1-1.1-.6-.8-.4.2-1.4.1-2.2-.4-.7-.4-2.4-.4-3.6 0-1.3.5-2.5.6-2.8.2-.4-.7 1-1.1 5.1-1.4.7-.1 1-.5.7-1-.3-.4-.7-1.8-.9-2.9-.6-2.9-1.1-3.3-1.9-1.4-.3.9-.2 1.4.3 1 .5-.3.8.3.7 1.2-.2.9-.8 1.8-1.5 1.9-.6.1-.7 0-.1-.3.5-.2.7-.9.4-1.4-.3-.6-1.2-.5-2.2.3-1.4 1.1-1.4.9.1-.8 2.2-2.6 2.2-3.4-.1-3.4-2.7 0-4.3-2-3.2-4 1.3-2.4-2.1-6.5-3.9-4.7-.9.9-1.4.9-2-.2-.7-1.1-.9-1.1-1.3 0-.3.9-.6.8-1.1-.5-.5-1.1-.3-1.5.5-1s.9.2.5-.9c-.3-.9-.1-1.9.5-2.3.6-.4.8-.3.5.3-.4.6 0 1.9.8 2.9.9 1 1.5 1.4 1.4.9-.3-2.4.2-3.5 1.7-3.5 1.4 0 1.4-.3.4-1.5-1.4-1.7-3.5-2.1-2.5-.5.3.6-.1.7-1 .4-.8-.4-2.6.1-4 1s-2.5 1.2-2.5.7.9-1.3 2-1.6c1.1-.4 1.8-1 1.5-1.5-.3-.5 0-1.2.6-1.6.8-.4.9-.3.5.4s-.3 1.2.2 1.2c.8 0 2.2-2.2 2.2-3.6 0-.9-3.7-.3-4.8.8-.9.9-1.5.9-2.4-.1-1.1-1.1-1-1.3.3-.8.9.3 1.6 0 1.6-.9 0-.7-.5-1.1-1.1-.8-.6.3-.2-.2.9-1.2 1.8-1.5 1.9-1.6.1-1-1.6.6-1.8.3-1.2-2.6.3-1.7.3-2.9 0-2.5-.4.3-1.6.1-2.8-.5l-2.1-1.1 2 2.4c1.1 1.3 1.3 1.8.5 1.1-2.1-1.8-3.5-1.5-1.9.5.8.9.9 1.4.2 1-.6-.4-1.4-.1-1.6.5-.3.7-.6.3-.6-1-.1-1.2.8-3.1 1.9-4.2 1.1-1.1 1.7-2 1.3-2-.5 0-.1-.5.7-1 2.1-1.4-.5-1.3-3.3.1-2 .9-2 .9-.5-.4 1-.8 1.4-1.8 1-2.2-.4-.5-.1-.5.6-.1s1.2.1 1.2-.9c0-.9-.4-1.4-.8-1.1-.5.3-.9-.1-.9-.9s.3-1.5.7-1.5c.4 0 .7-.7.7-1.5s-.4-1.5-.9-1.5c-.4 0-.8.4-.8.8s-1.1.9-2.5 1c-2.5.2-2.5.1-.9-2.3.9-1.3 1.3-2.9 1-3.4-.4-.5-.2-1.2.4-1.6.5-.3 1-1.3 1-2.2 0-1.4-.2-1.4-2 .2-1.9 1.7-1.9 1.7-1.5-.4.3-1.5 0-2.1-.8-1.8-.7.3-1.1 1-.9 1.6.1.7-.2 1-.7.6-.7-.3-.7-1.5-.1-2.9.5-1.3.6-2.7.2-3-.3-.4-.5-2.8-.4-5.4.2-3.5 0-4.3-.7-3.2-1 1.3-1.1 1.3-1.1 0s-.1-1.3-1 0c-.6 1-.8.1-.5-2.8.2-2.6 0-4.2-.7-4.2-.6 0-.8-.3-.5-.7.4-.3.2-1.1-.3-1.8-.5-.6-1.2-2.2-1.4-3.6-.3-1.3-.5-2.6-.6-2.9-.4-1.1-.7-2.6-.8-4.8-.1-1.3-.6-2.1-1.1-1.8-.5.4-.8-.2-.7-1.1.4-2.3-2.4-8.3-4.7-10.5-1-.9-1.8-1.9-1.7-2.3.1-.3-.1-1.6-.5-2.8-.4-1.2-.7-2.5-.6-3 .1-.4-.4-.7-1-.7s-.9-.6-.6-1.3c.2-.6-.2-2-1-2.9-.8-.9-1.6-2.8-1.7-4.3 0-1.6-.6-2.3-1.3-2-.7.2-1.3-.3-1.4-1.3-.3-5.8-.7-7.6-1.8-8-.6-.2-1.1-1.2-1.1-2.3 0-1-.6-1.9-1.2-1.9-.9 0-.8-.4.2-1 .9-.6 1-1 .3-1s-1-.9-.8-2.1c.3-1.6.1-1.8-.9-1-1.1.9-1.3.3-1.1-3.2.3-4.1.2-4.4-2.1-3.9-1.8.3-2.3.1-1.9-.9 1.1-3.2 1.3-6.9.4-6.9-.6 0-.7-.5-.4-1 .3-.6-.3-1-1.5-1-1.4 0-1.9-.4-1.4-1.3.5-.8.2-.8-.9.2-1.5 1.1-1.7 1.1-1.7-.2 0-1-.7-1.4-2.2-1.1-1.3.2-1.8.2-1.1-.2 1.8-.8.4-3.4-1.5-2.7-.9.4-1.4.3-1-.2C360.6 26 358 24 356 25c-.9.5-2 .6-2.4.3-.3-.4-1.7.4-3.1 1.7-1.4 1.3-2.5 1.9-2.5 1.5 0-.5-.7 0-1.5 1.2-1.6 2.2-5.1 2.1-3.8-.1.3-.6-.3-.3-1.5.8-1.2 1-1.9 2.4-1.5 3 .4.6-.1.5-1-.3-1.5-1.2-1.7-1.2-1.1.4.5 1.3.4 1.6-.4 1.1-.7-.4-1.2-.3-1.2.2 0 .4-.8 1.7-1.8 2.8-2.9 3.2-7 8.8-7.2 9.9-.3 1.6-1 2-1 .5 0-.9-.5-.7-1.4.5-.8 1.1-1.2 2.3-1 2.7.3.5.1.8-.5.8s-.8.6-.5 1.4c.3.7-.8 2.8-2.3 4.7-1.8 2.2-2.1 2.9-.8 1.9 1.9-1.4 1.9-1.4.4.5-.9 1.1-1.4 2.6-1.2 3.2.3.7 0 1.3-.5 1.3-.6 0-1.3-.8-1.5-1.8-.4-1.6-.5-1.6-.6 0 0 1-.5 1.8-1 1.8s-.7 1-.3 2.2c.3 1.4.1 1.9-.6 1.4-.7-.4-1 .1-.7 1.4.2 1.1 0 1.8-.5 1.5-.5-.3-1.4 1.3-2.1 3.5-.7 2.2-1.8 4-2.6 4-.7 0-1.3.6-1.3 1.2 0 1-.2 1-.8.1-.5-.8-1.1-.8-2.4.1-1 .7-1.5 1.6-1.1 1.9.3.4.1.7-.5.7-.7 0-1.2.6-1.2 1.4 0 .8-.4 1.7-.9 2.1-.5.3-.8-.7-.6-2.3.3-2-.1-2.9-1.1-2.9-.8 0-1.4.4-1.4.9 0 .4-.6.8-1.4.8-.8 0-1.7.6-1.9 1.2-.3.8-.6.5-.6-.5-.1-1-.5-1.6-1-1.3-.5.4-1.2 0-1.4-.6-.3-.7-.6-.2-.7 1.2 0 2.2-.2 2.3-1.1.8-.5-1-1.6-1.5-2.5-1.1-1.3.5-1.5.2-.9-1.5.4-1.6.2-2.2-.8-2.2-.9 0-1.7.5-1.9 1.1-.2.5-1.2 1.1-2.1 1.3-1 .1-2.2.8-2.6 1.5-.7 1-1.1 1-2.2-.1-1.5-1.3-3.3-2-5.6-2.1-.7 0-1.3-.3-1.3-.6 0-.4-1.3-.7-3-.7-1.6-.1-3 .2-3 .7 0 .5.7.9 1.5.9s1.5.4 1.5 1c0 .5-.7.7-1.5.4-.8-.4-1.5-.1-1.5.5s-.5 1.1-1.1 1.1c-.5 0-.8-.4-.5-.9.3-.4-.6-.6-2.1-.3-2 .4-2.4.2-1.8-.8.6-1 .3-1.2-1.1-.6-1.5.6-1.7.5-.6-.5 1.5-1.6 1.6-3.9.1-3.9-.5 0-.8.4-.4.9.3.5 0 1.3-.6 1.7-.8.5-.9.3-.5-.5.5-.8 0-1.4-1.4-1.8-1.4-.4-1.9-1.1-1.5-2.2.3-.8.3-1.2-.1-.8-1.1 1-4.3-4.8-4.6-8.2-.1-1.6-.6-2.7-1-2.5-.4.3-.8-.2-.8-1 0-.9-.4-1.6-.9-1.6-.4 0-.7-1.6-.6-3.6.1-1.9-.2-3.7-.7-4-.5-.3-.8-.2-.7.3.1.4.1 1.6 0 2.6-.1 1.5-.3 1.6-1.4.5-1.5-1.6-4.7-8.1-4.7-9.8 0-.6-.4-.9-.9-.6-.5.3-1.4-.8-2-2.4-1.2-3.5-1.8-3.8-1.7-.9.1 1.2-.5 2.4-1.1 2.6-.7.3-1.3-.2-1.3-1.1 0-.9-.4-1.6-1-1.6-.5 0-1 .6-1 1.2-.1 3.4-2-2.2-2-5.7 0-2.2-.4-3.5-.8-2.9-1.1 1.6-4.4 2.6-4 1.2.3-.7-.8-2.5-2.4-4.2-1.5-1.6-2.6-3.1-2.3-3.4.5-.6-2.6-3.1-3.9-3.2-.4 0-.6.9-.3 2s.1 1.8-.4 1.4c-.5-.3-.9 0-.9.7s-.8.3-1.7-.8c-2.4-2.6-6.1-4.6-7.3-3.8-.6.4-.9.1-.8-.7.2-.8-.8-1.4-2.4-1.6-1.6-.2-2.8-.7-2.8-1.1 0-.8-1.4-.9-4.3-.3zM416.5 170c.3.6-.1.7-.9.4-1.8-.7-2.1-1.4-.7-1.4.6 0 1.3.4 1.6 1zm11.3 12.9c-.7.9-1.3 1.7-1.4 1.9-.1.2-.1-.8 0-2.1 0-1.5.6-2.3 1.4-2 1 .4 1 .9 0 2.2zm-305.4 45.2c-.3.5-1 .7-1.5.3-.5-.3-.7-1-.3-1.5.3-.5 1-.7 1.5-.3.5.3.7 1 .3 1.5zm324-1.2c.3.5-.5.8-1.8.7-1.3 0-2.2-.4-1.9-.9.6-1 3.1-.9 3.7.2zm-6.4 2.6c-.7.8-1.7 1.5-2.3 1.5-.6 0-.2-.7.9-1.5 2.5-1.9 3-1.9 1.4 0zm-313.5.5c-.3.5.2 1 1.1 1 1 0 1.4.3 1 .7-1.1 1.2-5 1-5.8-.2-.4-.5 0-1.3 1-1.7 2.5-1 3.4-.9 2.7.2z"/><path d="M131.5 190c-.3.5-.1 1 .4 1 .6 0 1.1-.5 1.1-1 0-.6-.2-1-.4-1-.3 0-.8.4-1.1 1zM125 213c0 .5.5 1 1.1 1 .5 0 .7-.5.4-1-.3-.6-.8-1-1.1-1-.2 0-.4.4-.4 1zM118.9 251.7c-.8.9-.9 1.4-.2 1 .6-.4 1.3-.1 1.6.5.3.7.4.3.4-1-.1-2.6-.1-2.6-1.8-.5zM306.5 522c-.3.6.1.7.9.4 1.8-.7 2.1-1.4.7-1.4-.6 0-1.3.4-1.6 1z"/></svg>